<svg xmlns="http://www.w3.org/2000/svg" version="1.1" xmlns:xlink="http://www.w3.org/1999/xlink" xmlns:svgjs="http://svgjs.dev/svgjs" width="100%" height="100%" viewBox="0 0 1000 600"><rect width="1000" height="600" x="0" y="0" fill="white"/><g><circle r="166.66666666666666" cx="390.25153605143225" cy="412.47378733589244" fill="#102a43" transform="matrix(0.5590716934831204,0,0,0.5590716934831204,0,69.39757731227976)"/><path d="M383.8371386866341 349.0926552788928L383.8371386866341 349.0926552788928Q389.443258040269 356.96446017441116 395.3108026487365 369.3676361536966Q401.17834725720405 381.770812132982 406.697324859228 396.5849099068357Q412.2163024612519 411.39900768068946 416.6605317934081 426.85214496635655Q421.1047611255642 442.33432950256054 423.9513916781871 456.62557676674885Q426.82706948134694 470.9168240309372 427.23373098886447 482.07096823713294L427.23373098886447 482.07096823713294Q427.3208727404754 487.47375683700903 422.3247456481169 487.47375683700903L422.3247456481169 487.47375683700903L397.605535441157 487.47375683700903Q392.81273910255726 487.47375683700903 392.60940834879847 482.6809604984093L392.60940834879847 482.6809604984093Q392.2027468412809 471.23634378684386 388.92040753060354 454.91178898506774L388.92040753060354 454.91178898506774L333.17873375016165 454.91178898506774Q330.30305594700184 470.8296822793263 329.89639443948425 482.6809604984093L329.89639443948425 482.6809604984093Q329.69306368572546 487.47375683700903 324.69693659336696 487.47375683700903L324.69693659336696 487.47375683700903L300.50057689607246 487.47375683700903Q298.6706001122435 487.47375683700903 297.42156833915385 486.3990085671412Q296.2015838166012 485.3242602972734 296.31777281874906 482.6809604984093L296.31777281874906 482.6809604984093Q296.81157607787753 471.3525327889917 299.6291593799634 456.88700202158157Q302.4467426820493 442.45051850470844 306.92001926474245 426.9102394674305Q311.4223430979725 411.39900768068946 316.9413206999964 396.5268154057618Q322.4602983020204 381.6836703813711 328.3859374115619 369.3095416526226Q334.28252927056644 356.96446017441116 339.9176958747383 349.0926552788928L339.9176958747383 349.0926552788928Q342.880515429509 344.90985120156944 346.19190199072335 342.9636854155925Q349.5032885519377 341.0465668801526 354.4122738926854 341.0465668801526L354.4122738926854 341.0465668801526L369.11018266439123 341.0465668801526Q374.1353570072867 341.0465668801526 377.50483806957504 342.9636854155925Q380.87431913186333 344.90985120156944 383.8371386866341 349.0926552788928ZM361.35456677102076 373.31806222672424L360.7445745097444 373.31806222672424Q354.0056123851678 384.0364976748655 348.3994930315329 398.93773720033016Q342.76432642736114 413.8389767257948 338.6977113521856 429.58258651683155L338.6977113521856 429.58258651683155L382.994768421062 429.58258651683155Q378.7248225921277 413.8389767257948 373.0896559879559 398.93773720033016Q367.483536634321 384.0364976748655 361.35456677102076 373.31806222672424L361.35456677102076 373.31806222672424ZM484.195389291859 357.37112168192874L484.195389291859 482.07096823713294Q484.195389291859 485.1209295435146 482.91731026823237 486.3118668155303Q481.66827849514283 487.47375683700903 478.58926993822416 487.47375683700903L478.58926993822416 487.47375683700903L456.832879286035 487.47375683700903Q453.7829179796534 487.47375683700903 452.50483895602673 486.3118668155303Q451.22675993240017 485.1209295435146 451.22675993240017 482.07096823713294L451.22675993240017 482.07096823713294L451.22675993240017 357.37112168192874Q451.22675993240017 354.408302127158 452.2434137011941 352.86879784869865L452.2434137011941 352.86879784869865Q456.832879286035 346.1298357241221 465.1113456890709 338.69373958665824L465.1113456890709 338.69373958665824Q466.65084996753023 337.47375506410555 467.754645487935 337.47375506410555L467.754645487935 337.47375506410555Q469.00367726102473 337.47375506410555 470.3108035351882 338.69373958665824L470.3108035351882 338.69373958665824Q474.8131273684183 342.557023908075 477.86308867479994 346.10078847358506Q480.9420972317186 349.6155057885582 483.1787355230651 352.86879784869865L483.1787355230651 352.86879784869865Q484.195389291859 354.52449112930583 484.195389291859 357.37112168192874L484.195389291859 357.37112168192874Z " fill="white" transform="matrix(0.5590716934831204,0,0,0.5590716934831204,0,69.39757731227976)"/><path d="M726.7982495942184 403.74658290670055L726.7982495942184 364.8368115529168Q726.7982495942184 362.09782143691547 727.7380991438266 360.67462069036577L727.7380991438266 360.67462069036577Q732.0077013834758 354.44476081867646 739.6339091574404 347.57043268439855L739.6339091574404 347.57043268439855Q741.0571099039901 346.4426132248686 742.1043708306964 346.4426132248686L742.1043708306964 346.4426132248686Q743.2321902902264 346.4426132248686 744.4674211268544 347.57043268439855L744.4674211268544 347.57043268439855Q748.602759145131 351.1418609729101 751.4491606382304 354.4179079744019Q754.2687092870553 357.6671021316192 756.3632311404682 360.67462069036577L756.3632311404682 360.67462069036577Q757.3030806900765 362.2052328140135 757.3030806900765 364.8368115529168L757.3030806900765 364.8368115529168L757.3030806900765 480.1160720234439Q757.3030806900765 482.93562067226884 756.1215555419975 484.03658728752424Q754.9400303939185 485.1107010585052 752.1204817450936 485.1107010585052L752.1204817450936 485.1107010585052L732.0077013834758 485.1107010585052Q729.1612998903764 485.1107010585052 727.9797747422974 484.03658728752424Q726.7982495942184 482.93562067226884 726.7982495942184 480.1160720234439L726.7982495942184 480.1160720234439L726.7982495942184 429.98181176290956L670.7295107490144 429.98181176290956L670.7295107490144 480.1160720234439Q670.7295107490144 482.93562067226884 669.5479856009355 484.03658728752424Q668.3664604528564 485.1107010585052 665.5469118040315 485.1107010585052L665.5469118040315 485.1107010585052L645.4341314424138 485.1107010585052Q642.5877299493144 485.1107010585052 641.4062048012353 484.03658728752424Q640.2515324974308 482.93562067226884 640.2515324974308 480.1160720234439L640.2515324974308 480.1160720234439L640.2515324974308 354.7401421056962Q640.2515324974308 351.89374061259673 641.4062048012353 350.81962684161584Q642.5877299493144 349.7455130706349 645.4341314424138 349.7455130706349L645.4341314424138 349.7455130706349L665.5469118040315 349.7455130706349Q668.3664604528564 349.7455130706349 669.5479856009355 350.81962684161584Q670.7295107490144 351.89374061259673 670.7295107490144 354.7401421056962L670.7295107490144 354.7401421056962L670.7295107490144 403.74658290670055L726.7982495942184 403.74658290670055ZM780.7993194302841 356.72725258201086L780.7993194302841 356.72725258201086Q780.7993194302841 355.49202174538283 781.5511990699707 354.5521721957745Q782.3299315539319 353.6123226461662 783.5383095462854 352.0817105225184L783.5383095462854 352.0817105225184Q786.1967411294631 349.07419196377185 789.6876108851512 345.7175864294565Q793.1784806408392 342.3609808951411 796.7499089293507 339.2460509592964L796.7499089293507 339.2460509592964Q799.0324006926852 337.47376323717793 800.1602201522152 337.47376323717793L800.1602201522152 337.47376323717793Q801.288039611745 337.47376323717793 803.6510899079032 339.2460509592964L803.6510899079032 339.2460509592964Q811.3041505261422 345.8518506508291 816.6747193810468 352.0817105225184L816.6747193810468 352.0817105225184Q817.9099502176748 353.50491126906815 818.7155355459105 354.4984665072255Q819.5211208741462 355.49202174538283 819.5211208741462 356.72725258201086L819.5211208741462 356.72725258201086Q819.5211208741462 357.93563057436444 818.7155355459105 358.9023329682472Q817.9099502176748 359.8421825178555 816.5941608482232 361.45335317432694L816.5941608482232 361.45335317432694Q814.0431406421435 364.38031320024993 810.6328294192791 367.71006589029076Q807.2493710406892 371.0666714246061 803.6510899079032 374.1010428276272L803.6510899079032 374.1010428276272Q802.3353005384514 375.2288622871572 801.5834208987648 375.5510964184515Q800.8315412590782 375.87333054974573 800.1602201522152 375.87333054974573L800.1602201522152 375.87333054974573Q799.488899045352 375.87333054974573 798.7907250942145 375.5510964184515Q798.0925511430769 375.2288622871572 796.5619390194291 374.1010428276272L796.5619390194291 374.1010428276272Q792.8025408209959 371.0666714246061 789.4996409752295 367.71006589029076Q786.1967411294631 364.38031320024993 783.5383095462854 361.23853042013076L783.5383095462854 361.23853042013076Q782.3299315539319 359.73477114075746 781.5511990699707 358.8486272796982Q780.7993194302841 357.93563057436444 780.7993194302841 356.72725258201086ZM814.9829901917518 393.43509070528376L814.9829901917518 480.1160720234439Q814.9829901917518 482.93562067226884 813.8014650436728 484.03658728752424Q812.6199398955938 485.1107010585052 809.8003912467689 485.1107010585052L809.8003912467689 485.1107010585052L790.3320791477397 485.1107010585052Q787.5125304989148 485.1107010585052 786.3310053508358 484.03658728752424Q785.1494802027568 482.93562067226884 785.1494802027568 480.1160720234439L785.1494802027568 480.1160720234439L785.1494802027568 393.43509070528376Q785.1494802027568 390.6155420564589 786.3310053508358 389.5145754412034Q787.5125304989148 388.4404616702225 790.3320791477397 388.4404616702225L790.3320791477397 388.4404616702225L809.8003912467689 388.4404616702225Q812.6199398955938 388.4404616702225 813.8014650436728 389.5145754412034Q814.9829901917518 390.6155420564589 814.9829901917518 393.43509070528376L814.9829901917518 393.43509070528376ZM870.4878193071908 399.39642213422786L870.4878193071908 406.3781616456038L870.8637591270341 406.3781616456038Q877.9529100155082 386.7487324809276 896.3471083435564 386.7487324809276L896.3471083435564 386.7487324809276Q898.7101586397145 386.7487324809276 900.2407707633622 386.99040807939826Q901.7445300427355 387.20523083359444 902.3084397725005 387.3932007435161L902.3084397725005 387.3932007435161Q903.7316405190502 387.87655194045755 903.7316405190502 389.56828112975245L903.7316405190502 389.56828112975245L903.7316405190502 412.3126402302734Q903.7316405190502 415.2396002561964 900.3213292961858 413.9238108867448L900.3213292961858 413.9238108867448Q899.1935098366558 413.4673125340779 897.0721351389685 412.93025564858743Q894.9507604412812 412.4200516073715 891.1645093985734 412.4200516073715L891.1645093985734 412.4200516073715Q881.4437797711961 412.4200516073715 875.9657995391934 419.5360553401201Q870.4878193071908 426.6789119171432 870.4878193071908 438.9506617506002L870.4878193071908 438.9506617506002L870.4878193071908 480.1160720234439Q870.4878193071908 482.93562067226884 869.3062941591119 484.03658728752424Q868.1247690110328 485.1107010585052 865.3052203622078 485.1107010585052L865.3052203622078 485.1107010585052L845.8637611074532 485.1107010585052Q843.0173596143537 485.1107010585052 841.8358344662748 484.03658728752424Q840.6543093181957 482.93562067226884 840.6543093181957 480.1160720234439L840.6543093181957 480.1160720234439L840.6543093181957 401.0075927906992Q840.6543093181957 398.7251010273648 841.594158867804 397.4898701907367L841.594158867804 397.4898701907367Q843.5812693441187 394.8582914518335 846.3739651486692 392.1193013358321Q849.1666609532195 389.3803112198308 853.2214404386725 386.26538128398613L853.2214404386725 386.26538128398613Q853.9733200783592 385.70147155422114 854.7251997180458 385.5135016442995Q855.4770793577325 385.3255317343778 856.0409890874975 385.3255317343778L856.0409890874975 385.3255317343778Q857.356778456949 385.3255317343778 858.6994206706752 386.26538128398613L858.6994206706752 386.26538128398613Q866.5135983545614 392.4146826228519 869.628528290406 396.73799055105013L869.628528290406 396.73799055105013Q870.4878193071908 397.89266285485456 870.4878193071908 399.39642213422786L870.4878193071908 399.39642213422786ZM965.1709482191587 487.4737513546632L965.1709482191587 487.4737513546632Q949.2203587200921 487.4737513546632 937.4319600835765 482.3180052539548Q925.6167086027864 477.1891119975209 919.1183202883518 466.31371006633907Q912.5930791296428 455.4651609794318 912.5930791296428 438.27934064373716L912.5930791296428 438.27934064373716Q912.5930791296428 412.5006101401951 925.8046785127082 399.2890107571298Q939.0162778957734 386.07741137406447 960.9281988237841 386.07741137406447L960.9281988237841 386.07741137406447Q975.1870591335559 386.07741137406447 985.0420529823058 391.17945178622386Q994.9238996753302 396.2814921983832 1000.0527929317641 405.25034218607385Q1005.2085390324725 414.21919217376455 1005.2085390324725 425.7390623675349L1005.2085390324725 425.7390623675349Q1005.2085390324725 436.9635512742855 999.43517751345 441.3942705795818Q993.6886688387021 445.8249898848781 982.6521498418732 445.8249898848781L982.6521498418732 445.8249898848781L942.1312078316181 445.8249898848781Q942.9099403155792 455.5725723565299 949.2740644086412 460.64775992441474Q955.6381885017031 465.7498003365741 966.5941489657084 465.7498003365741L966.5941489657084 465.7498003365741Q975.2676176663794 465.7498003365741 980.5307751441859 463.1719272862199Q985.7670797777179 460.5672013915912 987.8347487868562 459.0634421122179L987.8347487868562 459.0634421122179Q989.6338893532492 457.72079989849175 991.8895282723091 457.82821127558987L991.8895282723091 457.82821127558987Q993.6886688387021 457.82821127558987 997.0452743730176 458.5263852267274Q1000.401879907333 459.25141202213956 1003.7047797530992 461.1311111213562L1003.7047797530992 461.1311111213562Q1006.0678300492573 462.3663419579842 1006.0678300492573 464.5414223442206L1006.0678300492573 464.5414223442206Q1006.0678300492573 465.7498003365741 1005.5844788523158 468.0322920999086L1005.5844788523158 468.0322920999086Q1005.2890975652961 469.3480814693602 1004.6446293027076 471.8453959868908Q1003.9733081958444 474.34271050442146 1002.9529001134125 476.51779089065786L1002.9529001134125 476.51779089065786Q1002.3621375393731 477.56505181736424 1001.1537595470196 478.50490136697255L1001.1537595470196 478.50490136697255Q999.2472076035284 479.8206907364242 995.0581638967028 481.9957711226605Q990.8691201898772 484.1708515088969 983.5919993914815 485.8088750096428Q976.3148785930858 487.4737513546632 965.1709482191587 487.4737513546632ZM941.9432379216963 426.4909420072215L941.9432379216963 426.4909420072215L972.7434503045741 426.4909420072215Q977.5501094297139 426.4909420072215 977.5501094297139 422.0602227019253L977.5501094297139 422.0602227019253Q977.5501094297139 415.3470116332945 973.3342128786137 410.7551752623511Q969.1451691717882 406.19019173568216 960.7402289138624 406.19019173568216L960.7402289138624 406.19019173568216Q951.5834090162501 406.19019173568216 947.2869539323265 412.04411178752815Q942.9904988484028 417.8980318393742 941.9432379216963 426.4909420072215ZM1064.956117543286 487.36633997756513L1064.956117543286 487.36633997756513Q1052.9797489968491 487.36633997756513 1045.085012780139 485.21811243560325Q1037.2171294077039 483.0430320493669 1032.4373231268387 479.7669850478751Q1027.6843696902483 476.51779089065786 1025.1333494841688 473.3223024219896L1025.1333494841688 473.3223024219896Q1024.2740584673838 472.08707158536157 1023.6027373605207 470.9592521258316Q1022.9582690979322 469.80457982202705 1022.6628878109124 468.4082319197519L1022.6628878109124 468.4082319197519Q1022.2869479910692 466.50167997626073 1021.9110081712257 463.44045572896516Q1021.5350683513824 460.37923148166954 1021.8304496384022 456.32445199621657L1021.8304496384022 456.32445199621657Q1021.9110081712257 454.6058699626471 1022.4749179009908 453.9614017000585L1022.4749179009908 453.9614017000585Q1023.1462390078539 453.2095220603719 1024.649998287227 452.8335822405286L1024.649998287227 452.8335822405286Q1027.3889884032287 452.1622611336655 1031.7928548642503 451.6520570924495Q1036.1698684809976 451.1150002069591 1038.049567580214 451.1150002069591L1038.049567580214 451.1150002069591Q1040.0366780565287 451.1150002069591 1041.2719088931567 451.86687984664576Q1042.5071397297852 452.64561233060687 1044.1988689190798 454.41790005272543L1044.1988689190798 454.41790005272543Q1046.0785680182962 456.4050105290401 1050.6972572335144 459.49308762061025Q1055.342799293007 462.5543118679059 1064.956117543286 462.5543118679059L1064.956117543286 462.5543118679059Q1074.2203488179966 462.5543118679059 1078.9464494103127 458.6875022923746Q1083.6456971583543 454.79383987256875 1083.6456971583543 447.91951173829085L1083.6456971583543 447.91951173829085Q1083.6456971583543 444.2406720726812 1081.443763927843 440.9646250711894Q1079.214977853058 437.71543091397217 1073.3610578012117 434.4662367567549Q1067.507137749366 431.2170425995376 1056.6585886624584 427.61876146675155L1056.6585886624584 427.61876146675155Q1038.7208886870771 421.57687150498384 1030.7992996260928 412.60802151729314Q1022.8508577208341 403.6391715296025 1022.8508577208341 387.6885820305359L1022.8508577208341 387.6885820305359Q1022.8508577208341 374.47698264747055 1029.2686875024451 365.58869119260345Q1035.6865172840562 356.72725258201086 1047.0184175679046 352.1891218996165Q1058.3503178517535 347.6509912172221 1073.17308789129 347.6509912172221L1073.17308789129 347.6509912172221Q1084.612399552237 347.6509912172221 1092.1043431048288 350.3362756446744Q1099.6231395016953 353.0484129164012 1103.758477519972 356.3781656064421Q1107.9206683825228 359.73477114075746 1109.1558992191508 361.82929299417026L1109.1558992191508 361.82929299417026Q1109.9077788588374 363.0376709865238 1110.1494544573084 363.6552864048378Q1110.3642772115045 364.2729018231518 1110.4716885886028 365.3201627498582L1110.4716885886028 365.3201627498582Q1110.740217031348 368.2471227757812 1110.659658498524 371.81855106429276Q1110.5522471214263 375.41683219707886 1109.9883373916614 379.95496287947327L1109.9883373916614 379.95496287947327Q1109.7198089489161 381.4587221588465 1108.9679293092295 382.0226318886115L1108.9679293092295 382.0226318886115Q1108.2966082023663 382.50598308555294 1106.8734074558165 382.50598308555294L1106.8734074558165 382.50598308555294Q1097.716587558204 382.6939529954746 1092.7219585231428 381.5392806916701L1092.7219585231428 381.5392806916701Q1090.7348480468281 381.0827823390032 1090.063526939965 380.5994311420618Q1089.4190586773766 380.1429327893949 1088.3717977506699 379.0956718626885L1088.3717977506699 379.0956718626885Q1086.868038471297 377.2965312962955 1083.6188443140795 374.9066281558629Q1080.3427973125877 372.48987217115587 1073.17308789129 372.48987217115587L1073.17308789129 372.48987217115587Q1063.2643883539913 372.48987217115587 1059.1021974914402 376.9742971650012Q1054.9668594731634 381.4587221588465 1054.9668594731634 387.0172609236728L1054.9668594731634 387.0172609236728Q1054.9668594731634 393.6230606152054 1061.0893079677548 397.35560596936415Q1067.2386093066207 401.0881513235228 1080.450208689686 405.81425191583884L1080.450208689686 405.81425191583884Q1091.4867276865148 409.68106149137014 1099.4351695917735 414.21919217376455Q1107.356758652758 418.7573228561589 1111.5458023595834 425.8196209003585Q1115.7616989106837 432.90877178883255 1115.7616989106837 444.50920051542647L1115.7616989106837 444.50920051542647Q1115.7616989106837 458.9560307351198 1109.1021935306017 468.4887904525755Q1102.44268815052 478.0215501700311 1090.976523645299 482.69394507379815Q1079.5103591400775 487.36633997756513 1064.956117543286 487.36633997756513ZM1223.4684572957954 398.3491612075215L1223.4684572957954 398.3491612075215Q1226.9593270514833 394.10641181214686 1234.290153538428 390.1053380152429Q1241.5941271810984 386.07741137406447 1254.9131379412615 386.07741137406447L1254.9131379412615 386.07741137406447Q1273.7906874662513 386.07741137406447 1282.195627724177 395.7981410014418Q1290.6005679821023 405.5188706288191 1290.6005679821023 424.9871827278483L1290.6005679821023 424.9871827278483L1290.6005679821023 480.1160720234439Q1290.6005679821023 482.93562067226884 1289.4190428340235 484.03658728752424Q1288.2375176859446 485.1107010585052 1285.391116192845 485.1107010585052L1285.391116192845 485.1107010585052L1265.9496569380904 485.1107010585052Q1263.1301082892655 485.1107010585052 1261.9485831411866 484.03658728752424Q1260.7670579931078 482.93562067226884 1260.7670579931078 480.1160720234439L1260.7670579931078 480.1160720234439L1260.7670579931078 429.87440038581144Q1260.7670579931078 419.3212325859239 1256.9002484175762 414.72939621498045Q1253.0065859977703 410.1644126883116 1245.2729668467077 410.1644126883116L1245.2729668467077 410.1644126883116Q1238.39863871243 410.1644126883116 1234.3707120712515 413.2256369356072Q1230.3696382743474 416.2868611829028 1228.651056240778 421.4694601278857L1228.651056240778 421.4694601278857L1228.651056240778 480.1160720234439Q1228.651056240778 482.93562067226884 1227.469531092699 484.03658728752424Q1226.3148587888945 485.1107010585052 1223.4684572957954 485.1107010585052L1223.4684572957954 485.1107010585052L1204.0269980410408 485.1107010585052Q1201.1805965479411 485.1107010585052 1199.9990713998623 484.03658728752424Q1198.817546251783 482.93562067226884 1198.817546251783 480.1160720234439L1198.817546251783 480.1160720234439L1198.817546251783 429.87440038581144Q1198.817546251783 419.58976102866916 1194.5747968564087 414.8636604363531Q1190.332047461034 410.1644126883116 1183.4308664824816 410.1644126883116L1183.4308664824816 410.1644126883116Q1176.932478168047 410.1644126883116 1172.9582572154177 413.3599011569798Q1169.0108891070627 416.58224246992256 1166.8358087208262 421.4694601278857L1166.8358087208262 421.4694601278857L1166.8358087208262 480.1160720234439Q1166.8358087208262 482.93562067226884 1165.6542835727473 484.03658728752424Q1164.4727584246684 485.1107010585052 1161.6263569315688 485.1107010585052L1161.6263569315688 485.1107010585052L1142.1848976768142 485.1107010585052Q1139.3653490279894 485.1107010585052 1138.18382387991 484.03658728752424Q1137.0022987318312 482.93562067226884 1137.0022987318312 480.1160720234439L1137.0022987318312 480.1160720234439L1137.0022987318312 401.0075927906992Q1137.0022987318312 398.7251010273648 1137.9421482814396 397.4898701907367L1137.9421482814396 397.4898701907367Q1139.9292587577543 394.8582914518335 1142.69510171803 392.1193013358321Q1145.4877975225804 389.3803112198308 1149.5425770080333 386.26538128398613L1149.5425770080333 386.26538128398613Q1150.7778078446618 385.3255317343778 1151.9056273041915 385.3255317343778L1151.9056273041915 385.3255317343778Q1152.9528882308978 385.3255317343778 1154.2686776003497 386.26538128398613L1154.2686776003497 386.26538128398613Q1158.242898552979 389.3803112198308 1161.062447201804 392.22671271293024Q1163.908848694903 395.04626136175517 1166.0839290811396 398.0806327647762L1166.0839290811396 398.0806327647762L1166.5404274338066 398.0806327647762Q1169.7627687467493 393.99900043504874 1176.5565383482035 390.0516323266939Q1183.3503079496577 386.07741137406447 1195.997997602958 386.07741137406447L1195.997997602958 386.07741137406447Q1208.0817775264936 386.07741137406447 1213.9356975783398 389.7025453511251Q1219.7896176301856 393.3545321724602 1223.4684572957954 398.3491612075215ZM1341.11076806248 487.4737513546632L1341.11076806248 487.4737513546632Q1327.227847572552 487.4737513546632 1319.0645829130967 479.68642651505155Q1310.9013182536419 471.8991016754399 1310.9013182536419 458.2041510954332L1310.9013182536419 458.2041510954332Q1310.9013182536419 451.1150002069591 1313.4791913039962 445.0462574009169Q1316.083917198625 438.9506617506002 1322.5554526687847 434.2782668468332Q1329.026988138945 429.60587194306623 1340.6811225540878 426.7594704499667Q1352.335256969231 423.93992180114185 1370.4609268545337 423.45657060420046L1370.4609268545337 423.45657060420046Q1370.4609268545337 414.8636604363531 1366.16447177061 411.1042622379199Q1361.8680166866866 407.31801119521214 1353.275106518839 407.31801119521214L1353.275106518839 407.31801119521214Q1345.5414873677764 407.31801119521214 1340.6274168655386 409.9764427783899Q1335.7133463633013 412.60802151729314 1334.4781155266733 413.54787106690145L1334.4781155266733 413.54787106690145Q1333.1623261572213 414.6756905264314 1331.282627058005 414.4071620836862L1331.282627058005 414.4071620836862Q1328.7316068519249 414.0312222638429 1325.8583525145514 413.0913727142346Q1322.9850981771774 412.12467032035175 1319.6553454871364 410.91629232799824L1319.6553454871364 410.91629232799824Q1319.1988471344694 410.7283224180766 1318.6349374047045 410.29867690968416Q1318.0710276749396 409.8690314012918 1317.9636162978413 409.0097403845071L1317.9636162978413 409.0097403845071Q1317.9636162978413 408.55324203184017 1318.0710276749396 407.8282152364281Q1318.151586207763 407.1300412852905 1318.5275260276067 405.25034218607385L1318.5275260276067 405.25034218607385Q1318.9034658474498 403.34379024258277 1319.6553454871364 400.57794728230687Q1320.4340779710974 397.7852514777565 1321.0785462336862 396.2814921983832L1321.0785462336862 396.2814921983832Q1321.9378372504707 394.67032154191185 1323.9249477267858 393.2471207953621L1323.9249477267858 393.2471207953621Q1325.5092655389826 391.93133142591046 1333.6456773541631 389.00437139998746Q1341.7552363250688 386.07741137406447 1357.1419160943706 386.07741137406447L1357.1419160943706 386.07741137406447Q1399.542557203842 386.07741137406447 1399.542557203842 427.32338017973177L1399.542557203842 427.32338017973177L1399.542557203842 480.7605402860325Q1399.542557203842 482.5596808524255 1398.549001965685 483.8486173776026Q1397.5554467275274 485.1107010585052 1395.1923964313696 485.1107010585052L1395.1923964313696 485.1107010585052L1381.040947498696 485.1107010585052Q1379.5103353750483 485.1107010585052 1378.328810226969 484.68105555011283Q1377.14728507889 484.2514100417205 1376.1268769964581 483.0430320493669L1376.1268769964581 483.0430320493669L1370.2729569446124 475.4705299639514L1369.6016358377492 475.4705299639514Q1365.278327909551 481.80780121273887 1357.947501422606 484.6273498615638Q1350.643527779936 487.4737513546632 1341.11076806248 487.4737513546632ZM1351.4759659524461 465.5618304266524L1351.4759659524461 465.5618304266524Q1360.1762874973915 465.5618304266524 1364.607006802688 461.1311111213562Q1369.0377261079839 456.7003918160599 1370.2729569446124 451.9742912237438L1370.2729569446124 451.9742912237438L1370.2729569446124 441.5016819566799Q1357.1419160943706 441.5016819566799 1350.5898220913868 443.51564527726913Q1344.0108752441288 445.55646144213284 1341.8626477021671 448.80565559935013Q1339.6875673159307 452.08170260084194 1339.6875673159307 455.8411007992751L1339.6875673159307 455.8411007992751Q1339.6875673159307 461.31908103127785 1343.0710256945204 463.44045572896516Q1346.4813369173849 465.5618304266524 1351.4759659524461 465.5618304266524ZM1454.8594164093597 399.39642213422786L1454.8594164093597 406.3781616456038L1455.2353562292028 406.3781616456038Q1462.3245071176766 386.7487324809276 1480.718705445725 386.7487324809276L1480.718705445725 386.7487324809276Q1483.0817557418832 386.7487324809276 1484.5855150212565 386.99040807939826Q1486.116127144904 387.20523083359444 1486.680036874669 387.3932007435161L1486.680036874669 387.3932007435161Q1488.0763847769445 387.87655194045755 1488.0763847769445 389.56828112975245L1488.0763847769445 389.56828112975245L1488.0763847769445 412.3126402302734Q1488.0763847769445 415.2396002561964 1484.6929263983548 413.9238108867448L1484.6929263983548 413.9238108867448Q1483.5651069388246 413.4673125340779 1481.416879396863 412.93025564858743Q1479.2955046991751 412.4200516073715 1475.5361065007423 412.4200516073715L1475.5361065007423 412.4200516073715Q1465.815376873365 412.4200516073715 1460.337396641362 419.5360553401201Q1454.8594164093597 426.6789119171432 1454.8594164093597 438.9506617506002L1454.8594164093597 438.9506617506002L1454.8594164093597 480.1160720234439Q1454.8594164093597 482.93562067226884 1453.6778912612804 484.03658728752424Q1452.4963661132015 485.1107010585052 1449.6499646201019 485.1107010585052L1449.6499646201019 485.1107010585052L1430.2085053653473 485.1107010585052Q1427.3889567165224 485.1107010585052 1426.2074315684436 484.03658728752424Q1425.0259064203647 482.93562067226884 1425.0259064203647 480.1160720234439L1425.0259064203647 480.1160720234439L1425.0259064203647 401.0075927906992Q1425.0259064203647 398.7251010273648 1425.9657559699726 397.4898701907367L1425.9657559699726 397.4898701907367Q1427.9528664462878 394.8582914518335 1430.7455622508378 392.1193013358321Q1433.511405211114 389.3803112198308 1437.5661846965668 386.26538128398613L1437.5661846965668 386.26538128398613Q1438.3449171805278 385.70147155422114 1439.0967968202144 385.5135016442995Q1439.848676459901 385.3255317343778 1440.4125861896664 385.3255317343778L1440.4125861896664 385.3255317343778Q1441.728375559118 385.3255317343778 1443.0441649285694 386.26538128398613L1443.0441649285694 386.26538128398613Q1450.88519545673 392.4146826228519 1454.0001253925748 396.73799055105013L1454.0001253925748 396.73799055105013Q1454.8594164093597 397.89266285485456 1454.8594164093597 399.39642213422786L1454.8594164093597 399.39642213422786ZM1540.385725423715 487.4737513546632L1540.385725423715 487.4737513546632Q1508.8604862454254 487.4737513546632 1508.8604862454254 454.71328133974515L1508.8604862454254 454.71328133974515L1508.8604862454254 410.4329411310568L1498.1999070684396 410.4329411310568Q1495.35350557534 410.4329411310568 1494.2793918043594 409.2514159829778Q1493.1784251891036 408.0698908348988 1493.1784251891036 405.25034218607385L1493.1784251891036 405.25034218607385L1493.1784251891036 393.6230606152054Q1493.1784251891036 390.80351196638054 1494.2793918043594 389.6219868183015Q1495.35350557534 388.4404616702225 1498.1999070684396 388.4404616702225L1498.1999070684396 388.4404616702225L1508.8604862454254 388.4404616702225L1508.8604862454254 373.2417518108425Q1508.8604862454254 370.98611289178257 1509.8003357950333 369.7508820551545L1509.8003357950333 369.7508820551545Q1513.7745567476627 364.5682831101716 1521.4007645216275 358.5263931484039L1521.4007645216275 358.5263931484039Q1522.7434067353533 357.5596907545211 1523.7638148177853 357.5596907545211L1523.7638148177853 357.5596907545211Q1524.8916342773155 357.5596907545211 1526.04630658112 358.5263931484039L1526.04630658112 358.5263931484039Q1530.1010860665729 361.6413230842486 1532.8669290268485 364.38031320024993Q1535.659624831399 367.09245047197675 1537.6467353077137 369.7508820551545L1537.6467353077137 369.7508820551545Q1538.5865848573221 370.98611289178257 1538.5865848573221 373.2417518108425L1538.5865848573221 373.2417518108425L1538.5865848573221 388.4404616702225L1555.2890539960754 388.4404616702225Q1558.135455489175 388.4404616702225 1559.209569260156 389.6219868183015Q1560.3105358754115 390.80351196638054 1560.3105358754115 393.6230606152054L1560.3105358754115 393.6230606152054L1560.3105358754115 405.25034218607385Q1560.3105358754115 408.0698908348988 1559.209569260156 409.2514159829778Q1558.135455489175 410.4329411310568 1555.2890539960754 410.4329411310568L1555.2890539960754 410.4329411310568L1538.5865848573221 410.4329411310568L1538.5865848573221 449.53068239476227Q1538.5865848573221 464.62198087704417 1549.5425453213275 464.62198087704417L1549.5425453213275 464.62198087704417Q1551.2342745106225 464.62198087704417 1552.6574752571723 464.29974674574987Q1554.0806760037221 463.95065977018106 1555.1010840861536 463.5747199503378L1555.1010840861536 463.5747199503378Q1557.0881945624683 462.8228403106511 1557.893779890704 463.01081022057275Q1558.6993652189399 463.19878013049447 1559.370686325803 465.10533207398555L1559.370686325803 465.10533207398555L1564.8486665578057 479.7401322036006Q1565.6811047303158 482.0763296554841 1563.6939942540012 483.1235905821905L1563.6939942540012 483.1235905821905Q1562.2976463517257 483.79491168905355 1556.8465189639978 485.62090509972114Q1551.4222444205438 487.4737513546632 1540.385725423715 487.4737513546632Z " fill="#102a43" transform="matrix(0.5590716934831204,0,0,0.5590716934831204,0,69.39757731227976)"/></g></svg>